<?xml version="1.0" standalone="no"?>
<!DOCTYPE svg PUBLIC "-//W3C//DTD SVG 20010904//EN"
 "http://www.w3.org/TR/2001/REC-SVG-20010904/DTD/svg10.dtd">
<svg version="1.0" xmlns="http://www.w3.org/2000/svg"
 width="140.000000pt" height="140.000000pt" viewBox="0 0 140.000000 140.000000"
 preserveAspectRatio="xMidYMid meet">
<metadata>
Created by potrace 1.16, written by Peter Selinger 2001-2019
</metadata>
<g transform="translate(0.000000,140.000000) scale(0.100000,-0.100000)"
fill="#000000" stroke="none">
<path d="M555 1090 c-98 -22 -159 -119 -134 -212 14 -54 72 -112 127 -129 117
-35 244 91 212 211 -25 91 -117 150 -205 130z"/>
<path d="M896 884 c-3 -9 -6 -24 -6 -35 0 -15 -7 -19 -33 -19 -18 0 -38 -5
-45 -12 -9 -9 -12 -77 -12 -245 l0 -233 210 0 210 0 0 233 c0 168 -3 236 -12
245 -7 7 -27 12 -45 12 -26 0 -33 4 -33 19 0 32 -11 51 -30 51 -19 0 -30 -19
-30 -51 0 -17 -8 -19 -60 -19 -52 0 -60 2 -60 19 0 32 -11 51 -30 51 -10 0
-21 -7 -24 -16z m284 -304 l0 -190 -170 0 -170 0 0 190 0 190 170 0 170 0 0
-190z"/>
<path d="M387 716 c-50 -18 -64 -31 -77 -72 -17 -51 -5 -103 26 -114 14 -6
115 -10 225 -10 l199 0 0 105 0 105 -27 0 c-16 -1 -39 -7 -53 -15 -33 -19
-131 -19 -177 0 -43 18 -66 18 -116 1z"/>
</g>
</svg>
